<svg fill="currentColor" 
viewBox="50 50 500 500" 
xmlns="http://www.w3.org/2000/svg" 
>

<g 
fill="currentColor" 
transform="translate(0,500) scale(0.09,-0.09)">

<path 
d="M2312 4400 c-282 -40 -522 -226 -629 -490 -111 -276 -46 -632 155&#10;-843 84 -89 240 -178 369 -211 33 -9 113 -20 176 -25 133 -11 189 -33 253 -96&#10;66 -66 89 -125 89 -225 0 -125 -41 -205 -138 -266 -47 -31 -136 -54 -205 -54&#10;-29 0 -86 -7 -127 -15 -247 -51 -460 -223 -562 -453 -72 -163 -83 -394 -28&#10;-560 80 -239 268 -423 515 -506 135 -45 215 -47 1462 -44 l1166 3 26 24 26 24&#10;0 609 0 608 94 0 c75 0 98 3 114 18 11 9 93 109 182 221 l161 204 -1 426 c-1&#10;507 12 463 -136 471 l-95 5 0 228 c0 125 1 232 1 237 0 6 38 10 93 10 142 0&#10;137 -10 137 277 0 268 1 264 -99 273 l-56 5 -5 59 c-4 49 -9 62 -32 79 -31 23&#10;-67 18 -98 -15 -17 -19 -20 -35 -20 -127 1 -68 5 -112 13 -122 20 -26 53 -39&#10;102 -39 l46 0 -3 -117 -3 -118 -493 -5 -494 -5 -20 -25 c-24 -30 -18 -77 13&#10;-102 19 -16 53 -18 390 -18 l369 0 0 -240 0 -240 -552 2 -553 3 0 235 0 235&#10;98 5 c89 4 101 7 118 29 25 30 24 62 -2 95 l-20 26 -255 0 -254 0 0 119 0 119&#10;55 4 c88 7 95 19 95 158 0 99 -3 119 -17 132 -29 26 -60 30 -91 14 -36 -18&#10;-42 -33 -42 -97 l0 -49 -52 0 c-102 -1 -108 -17 -108 -283 0 -278 -12 -260&#10;177 -267 l138 -5 3 -237 2 -238 -95 0 c-88 0 -98 -2 -120 -25 l-25 -24 0 -424&#10;0 -423 155 -195 c210 -262 194 -249 305 -249 l90 0 0 -555 0 -555 -852 0&#10;c-961 0 -929 -2 -1085 75 -259 128 -397 410 -338 690 29 138 125 290 233 371&#10;109 81 266 134 394 134 119 0 256 59 338 146 62 65 96 138 117 244 15 73 15&#10;87 1 159 -48 240 -215 378 -482 395 -118 8 -193 29 -291 79 -145 74 -243 196&#10;-297 367 -19 61 -23 97 -23 190 1 102 4 125 31 200 38 108 86 181 174 264 118&#10;111 262 166 436 166 77 0 95 -3 118 -21 35 -28 36 -80 1 -114 -21 -22 -33 -25&#10;-94 -25 -144 0 -262 -45 -361 -137 -113 -104 -167 -264 -141 -413 43 -241 245&#10;-400 507 -400 138 0 304 -71 410 -175 119 -117 177 -267 178 -455 0 -181 -55&#10;-312 -189 -446 -128 -128 -222 -166 -483 -193 -192 -20 -337 -128 -398 -297&#10;-48 -132 -41 -254 22 -382 62 -127 184 -222 322 -251 36 -7 305 -11 838 -11&#10;l785 0 24 25 c37 36 31 100 -12 121 -10 5 -380 11 -823 14 l-805 5 -49 24&#10;c-180 89 -233 324 -110 485 53 70 135 105 268 117 126 11 173 20 262 54 244&#10;92 435 317 488 577 62 301 -65 642 -297 800 -133 90 -260 132 -446 147 -130&#10;11 -197 37 -255 101 -65 72 -81 114 -81 215 0 106 22 162 91 225 76 70 166&#10;100 296 100 138 0 231 92 232 230 1 97 -45 170 -134 215 -41 21 -181 28 -278&#10;15z m2946 -1654 l2 -316 -489 0 c-451 0 -490 -1 -510 -17 -34 -29 -37 -74 -8&#10;-109 l25 -29 446 -3 446 -3 -94 -117 -94 -117 -516 1 c-284 0 -518 3 -519 5&#10;-2 2 -42 52 -90 111 -48 60 -87 110 -87 112 0 3 75 6 166 8 l166 3 24 28 c31&#10;36 31 71 -1 102 -24 25 -24 25 -235 25 l-210 0 0 313 c0 173 2 316 4 318 2 2&#10;357 3 788 2 l783 -1 3 -316z m-588 -870 c0 -3 -302 -179 -432 -253 -5 -2 -8&#10;55 -8 126 l0 131 220 0 c121 0 220 -2 220 -4z m38 -320 l-3 -138 -225 -130&#10;c-124 -72 -231 -132 -237 -135 -10 -4 -13 28 -13 140 l0 145 233 135 c127 74&#10;236 132 240 128 4 -4 6 -70 5 -145z m0 -553 l-3 -228 -237 -3 -238 -2 0 97 1&#10;98 227 132 c125 73 233 132 240 132 10 1 12 -48 10 -226z" fill="currentColor"/>
</g>
</svg>