<svg 
preserveAspectRatio="xMidYMid meet" 
viewBox="50 -40 600 600"
xmlns="http://www.w3.org/2000/svg" 
 >

<g stroke="none" fill="black" transform="translate(0,500) scale(0.09,-0.09)">
<path d="M2950 5104 c-92 -40 -120 -106 -120 -283 0 -137 10 -179 53 -228 49&#10;-55 78 -63 237 -63 l140 0 0 -195 0 -195 -49 -24 c-64 -33 -124 -102 -145&#10;-169 -15 -48 -17 -100 -14 -438 3 -377 3 -385 26 -426 33 -63 80 -111 133&#10;-138 l47 -24 4 -148 c3 -128 7 -154 26 -190 22 -42 59 -78 92 -88 13 -4 98&#10;-164 267 -502 270 -541 270 -541 376 -577 61 -20 92 -20 157 1 100 32 111 49&#10;378 585 166 334 248 489 261 493 34 10 71 46 94 88 19 38 22 57 22 189 l0 147&#10;40 18 c57 26 112 79 143 137 l27 51 3 384 c3 338 1 390 -14 438 -21 67 -81&#10;136 -145 169 l-49 24 0 195 0 195 140 0 c160 0 188 8 238 64 43 49 47 69 47&#10;231 0 158 -4 181 -42 226 -54 64 -80 69 -356 69 l-248 0 -24 -25 c-35 -34 -34&#10;-86 1 -114 25 -20 39 -21 260 -21 168 0 235 -3 240 -12 8 -13 6 -237 -2 -250&#10;-3 -4 -349 -8 -770 -8 -652 0 -769 -2 -793 -15 -46 -24 -55 -74 -20 -119 l20&#10;-26 570 0 569 0 0 -190 0 -190 -395 0 c-271 0 -402 -4 -419 -11 -36 -17 -52&#10;-61 -36 -99 7 -17 21 -35 31 -40 10 -6 200 -10 471 -10 499 0 496 0 542 -63&#10;20 -27 21 -42 24 -391 l3 -362 -23 -35 c-47 -70 -41 -69 -546 -69 -271 0 -461&#10;-4 -471 -10 -10 -5 -24 -23 -31 -40 -16 -38 0 -82 36 -99 17 -7 148 -11 420&#10;-11 l395 0 -3 -132 -3 -133 -665 0 -665 0 -3 133 -3 132 126 0 c126 0 157 7&#10;182 39 18 24 15 66 -6 92 -19 23 -24 24 -224 29 -313 8 -297 -17 -297 466 0&#10;348 0 351 23 385 41 62 69 69 280 69 186 0 188 0 212 25 27 26 31 51 14 88&#10;-18 39 -50 47 -184 47 l-124 0 -3 245 c-4 316 17 289 -231 293 -100 2 -185 6&#10;-189 10 -9 10 -13 235 -4 250 5 9 180 12 725 12 712 0 719 0 745 21 37 29 37&#10;89 0 118 -26 21 -33 21 -758 21 -631 -1 -736 -3 -766 -16z m1660 -2629 c0 -3&#10;-99 -203 -220 -445 -190 -380 -224 -441 -251 -455 -35 -19 -79 -13 -102 13&#10;-14 16 -447 875 -447 887 0 3 230 5 510 5 281 0 510 -2 510 -5z"/>
<path d="M4064 1228 c-40 -19 -44 -48 -44 -294 l0 -235 25 -24 c32 -33 78 -33&#10;110 0 l25 24 0 235 c0 249 -4 276 -47 295 -29 13 -41 13 -69 -1z"/>
<path d="M4041 454 c-20 -25 -21 -40 -21 -213 0 -174 1 -189 20 -209 27 -28&#10;62 -37 92 -21 45 24 47 34 48 230 0 174 -1 188 -21 213 -16 20 -29 26 -59 26&#10;-30 0 -43 -6 -59 -26z"/>
<path d="M2535 135 c-27 -26 -31 -54 -13 -88 25 -47 9 -46 658 -47 549 0 618&#10;2 638 16 32 22 44 58 31 91 -20 54 4 52 -667 53 l-623 0 -24 -25z"/>
<path d="M4378 146 c-22 -17 -40 -64 -33 -87 4 -10 18 -28 32 -39 25 -20 38&#10;-20 634 -20 431 0 615 3 633 11 36 17 52 61 36 99 -7 17 -21 35 -31 40 -11 6&#10;-259 10 -636 10 -491 -1 -622 -3 -635 -14z"/>
</g>
</svg>